<?xml version="1.0" encoding="UTF-8"?>
<svg width="48px" height="44px" viewBox="0 0 48 44" version="1.1" xmlns="http://www.w3.org/2000/svg" xmlns:xlink="http://www.w3.org/1999/xlink">
    <!-- Generator: Sketch 51.2 (57519) - http://www.bohemiancoding.com/sketch -->
    <title>noun_Monitor _309815</title>
    <desc>Created with Sketch.</desc>
    <defs></defs>
    <g id="Page-1" stroke="none" stroke-width="1" fill="none" fill-rule="evenodd">
        <g id="Redesign-Light03---Preferred" transform="translate(-696.000000, -984.000000)" fill="#00489D" fill-rule="nonzero">
            <g id="CallOuts" transform="translate(169.000000, 979.000000)">
                <g id="Top-Row">
                    <g id="Group-5" transform="translate(386.000000, 5.000000)">
                        <g id="noun_Monitor-_309815" transform="translate(141.000000, 0.000000)">
                            <g id="Group">
                                <path d="M36.3125,43.15625 L11,43.15625 L14.125,33 L33.1875,33 L36.3125,43.15625 Z M14.125,40.8125 L33.1875,40.8125 L31.46875,35.34375 L15.84375,35.34375 L14.125,40.8125 Z" id="Shape"></path>
                                <rect id="Rectangle-path" x="8" y="41" width="31.71875" height="2.34375"></rect>
                                <path d="M44.375,36 L3.4375,36 C1.5625,36 0,34.4375 0,32.5625 L0,26 L47.65625,26 L47.65625,32.5625 C47.8125,34.4375 46.25,36 44.375,36 Z M2.5,28.34375 L2.5,32.5625 C2.5,33.1875 2.96875,33.65625 3.59375,33.65625 L44.53125,33.65625 C45.15625,33.65625 45.625,33.1875 45.625,32.5625 L45.625,28.34375 L2.5,28.34375 Z" id="Shape"></path>
                                <path d="M47.65625,28.125 L0,28.125 L0,3.4375 C0,1.5625 1.5625,0 3.4375,0 L44.375,0 C46.25,0 47.8125,1.5625 47.8125,3.4375 L47.8125,28.125 L47.65625,28.125 Z M2.34375,25.78125 L45.3125,25.78125 L45.3125,3.4375 C45.3125,2.8125 44.84375,2.34375 44.21875,2.34375 L3.28125,2.34375 C2.65625,2.34375 2.1875,2.8125 2.1875,3.4375 L2.34375,25.78125 Z" id="Shape"></path>
                                <rect id="Rectangle-path" x="23" y="30" width="2.34375" height="2.34375"></rect>
                            </g>
                        </g>
                    </g>
                </g>
            </g>
        </g>
    </g>
</svg>