<?xml version="1.0" encoding="UTF-8"?>
<svg width="48px" height="47px" viewBox="0 0 48 47" version="1.1" xmlns="http://www.w3.org/2000/svg" xmlns:xlink="http://www.w3.org/1999/xlink">
    <!-- Generator: Sketch 51.2 (57519) - http://www.bohemiancoding.com/sketch -->
    <title>noun_growth chart_310747</title>
    <desc>Created with Sketch.</desc>
    <defs></defs>
    <g id="Page-1" stroke="none" stroke-width="1" fill="none" fill-rule="evenodd">
        <g id="Redesign-Light03---Preferred" transform="translate(-696.000000, -1221.000000)" fill="#00489D" fill-rule="nonzero">
            <g id="CallOuts" transform="translate(169.000000, 979.000000)">
                <g id="Bottom-Row" transform="translate(0.000000, 242.000000)">
                    <g id="Group-8" transform="translate(386.000000, 0.000000)">
                        <g id="noun_growth-chart_310747" transform="translate(140.000000, 0.000000)">
                            <g id="Group">
                                <rect id="Rectangle-path" x="1.25" y="33.84" width="2.34375" height="12.3766667"></rect>
                                <rect id="Rectangle-path" x="16.25" y="26.1633333" width="2.34375" height="20.0533333"></rect>
                                <rect id="Rectangle-path" x="31.40625" y="17.86" width="2.34375" height="28.3566667"></rect>
                                <rect id="Rectangle-path" x="46.5625" y="0.783333333" width="2.34375" height="45.4333333"></rect>
                                <path d="M12.8125,20.8366667 C7.96875,20.8366667 4.53125,19.4266667 4.375,19.4266667 L5.15625,17.2333333 C5.9375,17.5466667 23.4375,24.2833333 33.4375,3.91666667 L35.46875,5.01333333 C29.21875,18.0166667 19.6875,20.8366667 12.8125,20.8366667 Z" id="Shape"></path>
                                <polygon id="Shape" points="35.15625 12.0633333 33.75 5.95333333 28.4375 7.83333333 27.65625 5.48333333 35.46875 2.97666667 37.5 11.5933333"></polygon>
                            </g>
                        </g>
                    </g>
                </g>
            </g>
        </g>
    </g>
</svg>