<?xml version="1.0" encoding="UTF-8"?>
<svg width="49px" height="48px" viewBox="0 0 49 48" version="1.1" xmlns="http://www.w3.org/2000/svg" xmlns:xlink="http://www.w3.org/1999/xlink">
    <!-- Generator: Sketch 51.2 (57519) - http://www.bohemiancoding.com/sketch -->
    <title>noun_Speech Bubble _310827</title>
    <desc>Created with Sketch.</desc>
    <defs></defs>
    <g id="Page-1" stroke="none" stroke-width="1" fill="none" fill-rule="evenodd">
        <g id="Redesign-Light03---Preferred" transform="translate(-1088.000000, -982.000000)" fill="#00489D" fill-rule="nonzero">
            <g id="CallOuts" transform="translate(169.000000, 979.000000)">
                <g id="Top-Row">
                    <g id="Group-6" transform="translate(775.000000, 3.000000)">
                        <g id="noun_Speech-Bubble-_310827" transform="translate(144.000000, 0.000000)">
                            <g id="Group">
                                <path d="M0.275,47.8125 L6.65,33.309375 C4.7375,30.121875 3.78125,26.296875 3.78125,22.471875 C3.78125,10.040625 13.821875,0 26.253125,0 C38.684375,0 48.725,10.040625 48.725,22.471875 C48.725,34.903125 38.684375,44.94375 26.253125,44.94375 C22.26875,44.94375 18.44375,43.828125 15.096875,41.915625 L0.275,47.8125 Z M26.253125,2.23125 C15.096875,2.23125 6.0125,11.315625 6.0125,22.471875 C6.0125,25.978125 6.96875,29.64375 8.88125,32.671875 L9.2,33.15 L4.578125,43.509375 L15.25625,39.365625 L15.734375,39.684375 C18.921875,41.596875 22.5875,42.7125 26.253125,42.7125 C37.409375,42.7125 46.49375,33.628125 46.49375,22.471875 C46.49375,11.315625 37.409375,2.23125 26.253125,2.23125 Z" id="Shape"></path>
                                <path d="M18.7625,19.284375 C16.371875,19.284375 14.459375,18.009375 13.34375,16.89375 L14.9375,15.3 C15.25625,15.61875 18.44375,18.80625 22.26875,15.3 L23.8625,17.053125 C22.109375,18.646875 20.35625,19.284375 18.7625,19.284375 Z" id="Shape"></path>
                                <path d="M35.3375,19.284375 C32.946875,19.284375 31.034375,18.009375 29.91875,16.89375 L31.5125,15.3 C31.83125,15.61875 35.01875,18.80625 38.84375,15.3 L40.4375,17.053125 C38.84375,18.646875 36.93125,19.284375 35.3375,19.284375 Z" id="Shape"></path>
                                <path d="M25.775,33.7875 C19.71875,33.7875 15.25625,29.325 15.25625,29.325 L16.85,27.73125 C17.16875,28.05 25.1375,36.178125 34.38125,27.73125 L35.975,29.484375 C32.309375,32.671875 28.803125,33.7875 25.775,33.7875 Z" id="Shape"></path>
                            </g>
                        </g>
                    </g>
                </g>
            </g>
        </g>
    </g>
</svg>