<?xml version="1.0" encoding="UTF-8"?>
<svg width="40px" height="38px" viewBox="0 0 40 38" version="1.1" xmlns="http://www.w3.org/2000/svg" xmlns:xlink="http://www.w3.org/1999/xlink">
    <!-- Generator: Sketch 51.2 (57519) - http://www.bohemiancoding.com/sketch -->
    <title>noun_square ruler_311202</title>
    <desc>Created with Sketch.</desc>
    <defs></defs>
    <g id="Page-1" stroke="none" stroke-width="1" fill="none" fill-rule="evenodd">
        <g id="Redesign-Light03---Preferred" transform="translate(-326.000000, -1230.000000)" fill="#49a2b2" fill-rule="nonzero">
            <g id="CallOuts" transform="translate(169.000000, 979.000000)">
                <g id="Bottom-Row" transform="translate(0.000000, 242.000000)">
                    <g id="Group-7" transform="translate(0.000000, 2.000000)">
                        <g id="noun_square-ruler_311202" transform="translate(157.000000, 7.000000)">
                            <g id="Group">
                                <path d="M11.0972222,37.8284722 L0,37.8284722 L0,0 L39.8194444,0 L39.8194444,10.5423611 L11.0972222,10.5423611 L11.0972222,37.8284722 Z M1.95833333,35.9680556 L9.13888889,35.9680556 L9.13888889,8.68194444 L37.8611111,8.68194444 L37.8611111,1.86041667 L1.95833333,1.86041667 L1.95833333,35.9680556 Z" id="Shape"></path>
                                <rect id="Rectangle-path" x="9.77777778" y="0.844444444" width="1.95833333" height="3.34875"></rect>
                                <rect id="Rectangle-path" x="18.6666667" y="0.844444444" width="1.95833333" height="3.34875"></rect>
                                <rect id="Rectangle-path" x="28.4444444" y="0.844444444" width="1.95833333" height="3.34875"></rect>
                                <rect id="Rectangle-path" x="0.888888889" y="27.0222222" width="3.525" height="1.86041667"></rect>
                                <rect id="Rectangle-path" x="0.888888889" y="17.7333333" width="3.525" height="1.86041667"></rect>
                                <rect id="Rectangle-path" x="0.888888889" y="8.44444444" width="3.525" height="1.86041667"></rect>
                            </g>
                        </g>
                    </g>
                </g>
            </g>
        </g>
    </g>
</svg>