<?xml version="1.0" encoding="UTF-8"?>
<svg width="45px" height="45px" viewBox="0 0 45 45" version="1.1" xmlns="http://www.w3.org/2000/svg" xmlns:xlink="http://www.w3.org/1999/xlink">
    <!-- Generator: Sketch 51.2 (57519) - http://www.bohemiancoding.com/sketch -->
    <title>noun_Server Checked_310841</title>
    <desc>Created with Sketch.</desc>
    <defs></defs>
    <g id="Page-1" stroke="none" stroke-width="1" fill="none" fill-rule="evenodd">
        <g id="Redesign-Light03---Preferred" transform="translate(-1089.000000, -1222.000000)" fill="#00489D" fill-rule="nonzero">
            <g id="CallOuts" transform="translate(169.000000, 979.000000)">
                <g id="Bottom-Row" transform="translate(0.000000, 242.000000)">
                    <g id="Group-9" transform="translate(775.000000, 0.000000)">
                        <g id="noun_Server-Checked_310841" transform="translate(144.000000, 0.000000)">
                            <g id="Group">
                                <path d="M19.975,15.275 C10.86875,15.275 1.321875,12.778125 1.321875,8.225 C1.321875,3.525 10.721875,1.175 19.975,1.175 C29.228125,1.175 38.628125,3.525 38.628125,8.225 C38.628125,12.778125 29.08125,15.275 19.975,15.275 Z M19.975,3.378125 C9.69375,3.378125 3.525,6.16875 3.525,8.225 C3.525,10.28125 9.840625,13.071875 19.975,13.071875 C30.25625,13.071875 36.425,10.28125 36.425,8.225 C36.425,6.16875 30.25625,3.378125 19.975,3.378125 Z" id="Shape"></path>
                                <path d="M19.975,25.409375 C10.86875,25.409375 1.321875,22.9125 1.321875,18.359375 L3.525,18.359375 C3.525,20.415625 9.840625,23.20625 19.975,23.20625 C30.25625,23.20625 36.425,20.415625 36.425,18.359375 L38.628125,18.359375 C38.628125,22.9125 29.08125,25.409375 19.975,25.409375 Z" id="Shape"></path>
                                <path d="M19.975,35.54375 C10.86875,35.54375 1.321875,33.046875 1.321875,28.49375 L3.525,28.49375 C3.525,30.55 9.840625,33.340625 19.975,33.340625 C21.296875,33.340625 22.471875,33.340625 23.646875,33.19375 L23.79375,35.396875 C22.61875,35.54375 21.296875,35.54375 19.975,35.54375 Z" id="Shape"></path>
                                <path d="M19.975,45.825 C10.86875,45.825 1.321875,43.328125 1.321875,38.775 L1.321875,8.225 L3.525,8.225 C3.525,10.28125 9.840625,13.071875 19.975,13.071875 C30.25625,13.071875 36.425,10.28125 36.425,8.225 L38.628125,8.225 L38.628125,24.821875 L36.425,24.821875 L36.425,11.603125 C33.046875,13.953125 26.290625,15.128125 19.975,15.128125 C13.5125,15.128125 6.903125,13.953125 3.525,11.603125 L3.525,38.775 C3.525,40.83125 9.840625,43.621875 19.975,43.621875 C23.353125,43.621875 26.584375,43.328125 29.521875,42.59375 L29.9625,44.796875 C27.025,45.384375 23.5,45.825 19.975,45.825 Z" id="Shape"></path>
                                <path d="M34.36875,45.971875 C28.053125,45.971875 22.9125,40.83125 22.9125,34.515625 C22.9125,28.2 28.053125,23.059375 34.36875,23.059375 C40.684375,23.059375 45.825,28.2 45.825,34.515625 C45.678125,40.83125 40.5375,45.971875 34.36875,45.971875 Z M34.36875,25.2625 C29.375,25.2625 25.115625,29.375 25.115625,34.515625 C25.115625,39.509375 29.228125,43.76875 34.36875,43.76875 C39.509375,43.76875 43.621875,39.65625 43.621875,34.515625 C43.475,29.375 39.3625,25.2625 34.36875,25.2625 Z" id="Shape"></path>
                                <polygon id="Shape" points="31.725 40.096875 28.49375 36.71875 30.109375 35.25 31.725 37.0125 38.48125 29.66875 40.096875 31.284375"></polygon>
                            </g>
                        </g>
                    </g>
                </g>
            </g>
        </g>
    </g>
</svg>