<?xml version="1.0" encoding="UTF-8"?>
<svg width="54px" height="51px" viewBox="0 0 54 51" version="1.1" xmlns="http://www.w3.org/2000/svg" xmlns:xlink="http://www.w3.org/1999/xlink">
    <!-- Generator: Sketch 51.2 (57519) - http://www.bohemiancoding.com/sketch -->
    <title>noun_Thumb Up _309636</title>
    <desc>Created with Sketch.</desc>
    <defs></defs>
    <g id="Page-1" stroke="none" stroke-width="1" fill="none" fill-rule="evenodd">
        <g id="Redesign-Light03---Preferred" transform="translate(-315.000000, -980.000000)" fill="#fe9e00" fill-rule="nonzero">
            <g id="CallOuts" transform="translate(169.000000, 979.000000)">
                <g id="Top-Row">
                    <g id="Group-4">
                        <g id="noun_Thumb-Up-_309636" transform="translate(145.000000, 0.000000)">
                            <g id="Group">
                                <path d="M49.525,41.1633333 L44.275,41.1633333 C43.575,41.1633333 42.875,40.6333333 42.875,39.75 C42.875,38.8666667 43.4,38.3366667 44.275,38.3366667 L49.525,38.3366667 C50.225,38.3366667 50.925,38.8666667 50.925,39.75 C50.925,40.6333333 50.225,41.1633333 49.525,41.1633333 Z" id="Shape"></path>
                                <path d="M49.525,25.7933333 L44.275,25.7933333 C43.575,25.7933333 42.875,25.2633333 42.875,24.38 C42.875,23.4966667 43.4,22.9666667 44.275,22.9666667 L49.525,22.9666667 C50.225,22.9666667 50.925,23.4966667 50.925,24.38 C50.925,25.2633333 50.225,25.7933333 49.525,25.7933333 Z" id="Shape"></path>
                                <path d="M49.525,33.39 L44.275,33.39 C43.575,33.39 42.875,32.86 42.875,31.9766667 C42.875,31.27 43.4,30.5633333 44.275,30.5633333 L49.525,30.5633333 C50.225,30.5633333 50.925,31.0933333 50.925,31.9766667 C50.925,32.86 50.225,33.39 49.525,33.39 Z" id="Shape"></path>
                                <path d="M49.525,48.9366667 L41.125,48.9366667 C35.35,48.9366667 29.4,48.4066667 23.625,47.3466667 L14.35,45.7566667 L14.35,18.55 L16.975,18.02 C19.6,17.49 21.875,15.9 23.1,13.4266667 L27.65,4.24 C28.525,2.29666667 30.45,1.23666667 32.55,1.23666667 C33.775,1.23666667 35,1.59 36.05,2.47333333 C38.15,4.06333333 38.675,7.06666667 37.45,9.36333333 L34.475,15.37 C36.75,15.37 38.85,15.37 40.95,15.37 L49.35,15.37 C51.8,15.37 54.075,17.1366667 54.425,19.4333333 C54.775,21.0233333 54.425,22.6133333 53.375,23.85 C53.2,24.0266667 53.025,24.2033333 52.85,24.38 C53.9,25.2633333 54.6,26.6766667 54.6,28.2666667 C54.6,29.8566667 53.9,31.0933333 52.85,32.1533333 C53.9,33.0366667 54.6,34.45 54.6,36.04 C54.6,37.63 53.9,38.8666667 52.85,39.9266667 C53.025,40.1033333 53.2,40.28 53.375,40.4566667 C54.425,41.6933333 54.775,43.2833333 54.425,44.8733333 C54.075,47.17 51.975,48.9366667 49.525,48.9366667 Z M16.8,43.46 L23.8,44.6966667 C29.4,45.7566667 35.175,46.11 40.775,46.11 L49.175,46.11 C50.4,46.11 51.45,45.2266667 51.8,44.1666667 C51.975,43.46 51.8,42.5766667 51.275,42.0466667 C50.75,41.5166667 50.05,41.1633333 49.35,41.1633333 L49.35,38.5133333 C50.75,38.5133333 51.8,37.4533333 51.8,36.04 C51.8,34.6266667 50.75,33.5666667 49.35,33.5666667 L49.35,30.9166667 C50.75,30.9166667 51.8,29.8566667 51.8,28.4433333 C51.8,27.03 50.75,25.97 49.35,25.97 L49.35,23.32 C50.05,23.32 50.75,22.9666667 51.275,22.4366667 C51.8,21.9066667 51.975,21.0233333 51.8,20.3166667 C51.625,19.08 50.575,18.3733333 49.175,18.3733333 L40.775,18.3733333 C38.675,18.3733333 36.575,18.3733333 34.475,18.55 L34.3,18.55 C33.425,18.55 32.55,18.02 32.025,17.3133333 C31.5,16.43 31.5,15.5466667 31.85,14.6633333 L34.825,8.65666667 C35.525,7.42 35.175,5.83 34.125,4.94666667 C32.725,3.88666667 30.45,4.24 29.75,5.83 L25.2,15.0166667 C23.625,18.1966667 20.65,20.4933333 17.15,21.0233333 L16.625,21.2 L16.625,43.46 L16.8,43.46 Z" id="Shape"></path>
                                <path d="M11.2,51.7633333 L7,51.7633333 C3.85,51.7633333 1.4,49.29 1.4,46.11 L1.4,18.1966667 C1.4,15.0166667 3.85,12.5433333 7,12.5433333 L11.375,12.5433333 C14.525,12.5433333 16.975,15.0166667 16.975,18.1966667 L16.975,46.11 C16.8,49.29 14.35,51.7633333 11.2,51.7633333 Z M7,15.1933333 C5.425,15.1933333 4.025,16.6066667 4.025,18.1966667 L4.025,46.11 C4.025,47.7 5.25,49.1133333 7,49.1133333 L11.375,49.1133333 C12.95,49.1133333 14.35,47.7 14.35,46.11 L14.35,18.1966667 C14.35,16.6066667 12.95,15.1933333 11.375,15.1933333 L7,15.1933333 Z" id="Shape"></path>
                            </g>
                        </g>
                    </g>
                </g>
            </g>
        </g>
    </g>
</svg>