<?xml version="1.0" encoding="UTF-8"?>
<svg width="32px" height="22px" viewBox="0 0 32 22" version="1.1" xmlns="http://www.w3.org/2000/svg" xmlns:xlink="http://www.w3.org/1999/xlink">
    <!-- Generator: Sketch 51.2 (57519) - http://www.bohemiancoding.com/sketch -->
    <title>noun_Book_309814</title>
    <desc>Created with Sketch.</desc>
    <defs></defs>
    <g id="Page-1" stroke="none" stroke-width="1" fill="none" fill-rule="evenodd">
        <g id="Redesign-Light03---Preferred" transform="translate(-185.000000, -389.000000)" fill="#FFFFFF" fill-rule="nonzero">
            <g id="Site-Hero" transform="translate(-3.000000, -1.000000)">
                <g id="Group-2" transform="translate(154.000000, 101.000000)">
                    <g id="Big-Button" transform="translate(0.000000, 264.000000)">
                        <g id="noun_Book_309814" transform="translate(34.000000, 25.000000)">
                            <g id="Group">
                                <path d="M13.9,22 L3.6,22 C2,22 0.7,20.7 0.7,19.1 L0.7,2.9 C0.8,1.3 2,0 3.6,0 L13.8,0 C15.4,0 16.7,1.3 16.7,2.9 L16.7,19.2 C16.8,20.7 15.5,22 13.9,22 Z M3.6,1.5 C2.8,1.5 2.2,2.1 2.2,2.9 L2.2,19.2 C2.2,20 2.8,20.6 3.6,20.6 L13.8,20.6 C14.6,20.6 15.2,20 15.2,19.2 L15.2,2.9 C15.2,2.1 14.6,1.5 13.8,1.5 L3.6,1.5 Z" id="Shape"></path>
                                <path d="M28.4,22 L18.1,22 C16.5,22 15.2,20.7 15.2,19.1 L15.2,2.9 C15.2,1.3 16.5,0 18.1,0 L28.3,0 C29.9,0 31.2,1.3 31.2,2.9 L31.2,19.2 C31.3,20.7 30,22 28.4,22 Z M18.1,1.5 C17.3,1.5 16.7,2.1 16.7,2.9 L16.7,19.2 C16.7,20 17.3,20.6 18.1,20.6 L28.3,20.6 C29.1,20.6 29.7,20 29.7,19.2 L29.7,2.9 C29.7,2.1 29.1,1.5 28.3,1.5 L18.1,1.5 Z" id="Shape"></path>
                                <rect id="Rectangle-path" x="19.4" y="4.3" width="7.8" height="1.5"></rect>
                                <rect id="Rectangle-path" x="19.4" y="10.3" width="7.8" height="1.5"></rect>
                                <rect id="Rectangle-path" x="19.4" y="16.2" width="7.8" height="1.5"></rect>
                                <rect id="Rectangle-path" x="4.9" y="4.3" width="7.8" height="1.5"></rect>
                                <rect id="Rectangle-path" x="4.9" y="10.3" width="7.8" height="1.5"></rect>
                                <rect id="Rectangle-path" x="4.9" y="16.2" width="7.8" height="1.5"></rect>
                            </g>
                        </g>
                    </g>
                </g>
            </g>
        </g>
    </g>
</svg>