<?xml version="1.0" encoding="UTF-8"?>
<svg width="23px" height="25px" viewBox="0 0 23 25" version="1.1" xmlns="http://www.w3.org/2000/svg" xmlns:xlink="http://www.w3.org/1999/xlink">
    <!-- Generator: Sketch 51.2 (57519) - http://www.bohemiancoding.com/sketch -->
    <title>noun_stack_390336</title>
    <desc>Created with Sketch.</desc>
    <defs></defs>
    <g id="Page-1" stroke="none" stroke-width="1" fill="none" fill-rule="evenodd">
        <g id="Redesign-Light03---Preferred" transform="translate(-149.000000, -50.000000)" fill="#00489D" fill-rule="nonzero">
            <g id="Site-Hero" transform="translate(-3.000000, -1.000000)">
                <g id="Banner-Nav" transform="translate(152.000000, 15.000000)">
                    <g id="noun_stack_390336" transform="translate(0.000000, 36.000000)">
                        <path d="M21.8693106,12.8570645 C21.9332761,12.8250818 21.9652588,12.7611163 21.9972416,12.7291335 C22.0292243,12.6971508 22.0931898,12.6331853 22.1251726,12.5692198 L22.1891381,12.5052543 L22.2211208,12.4093061 C22.2531036,12.3453406 22.2850863,12.2813751 22.2850863,12.2174096 C22.3170691,12.1534441 22.3170691,12.0894786 22.3170691,12.0255131 C22.3170691,11.9615476 22.3490518,11.8655994 22.3170691,11.7696511 C22.3170691,11.6737029 22.3170691,11.6097374 22.2850863,11.5457719 C22.2850863,11.4818064 22.2531036,11.4178409 22.2211208,11.3538754 L22.1891381,11.2899099 L22.1251726,11.1939617 C22.0931898,11.1299962 22.0292243,11.0660307 21.9972416,11.0340479 C21.9652588,10.9700824 21.9012933,10.9380997 21.8693106,10.8741342 C21.8373278,10.8421514 21.7733623,10.8101687 21.7413796,10.7781859 L21.7413796,10.7462032 L18.9268978,9.30697955 L21.7093969,7.61189393 C21.7733623,7.57991118 21.8373278,7.51594569 21.8693106,7.48396294 C21.9332761,7.45198019 21.9652588,7.3880147 21.9972416,7.35603195 C22.0292243,7.3240492 22.0931898,7.26008371 22.1251726,7.19611821 L22.1891381,7.13215272 L22.2211208,7.03620447 C22.2531036,6.97223898 22.2850863,6.90827348 22.2850863,6.84430799 C22.3170691,6.78034249 22.3170691,6.716377 22.3170691,6.6524115 C22.3170691,6.58844601 22.3490518,6.49249776 22.3170691,6.39654952 C22.3170691,6.30060128 22.3170691,6.23663578 22.2850863,6.17267029 C22.2850863,6.10870479 22.2531036,6.0447393 22.2211208,5.9807738 L22.1891381,5.91680831 L22.1251726,5.82086006 C22.0931898,5.75689457 22.0292243,5.69292907 21.9972416,5.66094633 C21.9652588,5.59698083 21.9012933,5.56499808 21.8693106,5.50103259 C21.8373278,5.46904984 21.7733623,5.43706709 21.7413796,5.40508435 L11.5708659,0.159913738 C11.5069004,0.12793099 11.4429349,0.0959482428 11.4109521,0.0959482428 C11.3469866,0.0639654952 11.2830211,0.0639654952 11.2510384,0.0319827476 C11.1550901,0 11.0591419,0 10.9312109,0 C10.8672454,0 10.8032799,0 10.7712972,0.0319827476 C10.6753489,0.0319827476 10.6113834,0.0639654952 10.5154352,0.0959482428 L10.4514697,0.12793099 L10.3555215,0.191896486 C10.163625,0.287844728 1.11250739,5.85284281 0.664748926,6.10870479 C0.440869693,6.23663578 0.280955955,6.39654952 0.185007712,6.58844601 C0.0570767213,6.84430799 -0.0068887739,7.13215272 0.0570767213,7.3880147 L0.0570767213,7.48396294 C0.0890594689,7.57991118 0.121042217,7.67585943 0.153024964,7.77180767 L0.248973207,7.9956869 L0.312938702,8.0596524 C0.34492145,8.09163514 0.376904197,8.12361789 0.408886945,8.15560064 C0.440869693,8.18758339 0.47285244,8.21956613 0.536817935,8.25154888 L0.664748926,8.34749713 C0.728714421,8.37947987 1.88009333,8.98715208 3.41526522,9.78672077 C1.94405883,10.6822377 0.792679916,11.3858581 0.632766178,11.4818064 C0.408886945,11.6097374 0.248973207,11.7696511 0.153024964,11.9615476 C0.0250939737,12.2174096 -0.0388715215,12.4732716 0.0250939737,12.7611163 L0.0250939737,12.8570645 C0.0570767213,12.9530128 0.0890594689,13.048961 0.121042217,13.1449093 L0.248973207,13.3687885 L0.312938702,13.432754 C0.34492145,13.4647367 0.376904197,13.4967195 0.408886945,13.5287022 C0.440869693,13.560685 0.504835188,13.6246505 0.568800683,13.6566332 L0.664748926,13.7205987 C0.696731673,13.7205987 1.88009333,14.3282709 3.41526522,15.1598224 C1.94405883,16.0553393 0.792679916,16.7589597 0.632766178,16.854908 C0.408886945,16.982839 0.248973207,17.1427527 0.153024964,17.3346492 C0.0250939737,17.5905112 -0.0388715215,17.8463732 0.0250939737,18.1342179 L0.0250939737,18.2301661 C0.0570767213,18.3261144 0.0890594689,18.4220626 0.121042217,18.5180109 L0.248973207,18.7418901 L0.312938702,18.7738728 C0.34492145,18.8378383 0.408886945,18.8698211 0.408886945,18.8698211 C0.440869693,18.9018038 0.47285244,18.9337866 0.536817935,18.9977521 L0.664748926,19.0937003 C0.824662664,19.1896486 10.6753489,24.2429227 10.8032799,24.3068882 C10.8672454,24.3388709 10.8992282,24.3388709 10.9631937,24.3708537 C11.0591419,24.4028364 11.1550901,24.4348192 11.2510384,24.4348192 C11.2830211,24.4348192 11.3150039,24.4348192 11.3789694,24.4348192 C11.3789694,24.4348192 11.3789694,24.4348192 11.3789694,24.4348192 C11.3789694,24.4348192 11.3789694,24.4348192 11.3789694,24.4348192 C11.5069004,24.4348192 11.6348314,24.4028364 11.7627623,24.3708537 L11.8267278,24.3388709 C11.8906933,24.3068882 11.9866416,24.2749054 12.0506071,24.2429227 L21.7093969,18.3261144 C21.7733623,18.2941316 21.8373278,18.2621489 21.8693106,18.2301661 C21.9332761,18.1981834 21.9652588,18.1662006 21.9972416,18.1022351 C22.0292243,18.0382697 22.0931898,18.0062869 22.1251726,17.9423214 L22.1891381,17.8783559 L22.2211208,17.7824077 C22.2531036,17.7184422 22.2850863,17.6544767 22.2850863,17.6224939 C22.3170691,17.5585284 22.3170691,17.4945629 22.3170691,17.4305974 C22.3170691,17.366632 22.3490518,17.2706837 22.3170691,17.1747355 C22.3170691,17.0787872 22.3170691,17.0148217 22.2850863,16.9508562 C22.2850863,16.8868907 22.2531036,16.8229252 22.2211208,16.7589597 L22.1891381,16.6949943 L22.1251726,16.599046 C22.0931898,16.5350805 22.0292243,16.471115 21.9972416,16.4391323 C21.9652588,16.3751668 21.9012933,16.343184 21.8693106,16.2792185 C21.8373278,16.2472358 21.7733623,16.215253 21.7413796,16.1832703 L21.7413796,16.1193048 L18.9268978,14.6800812 L21.7093969,12.9849955 C21.7733623,12.92103 21.8373278,12.8890473 21.8693106,12.8570645 Z M10.9951764,1.66310288 L20.4300869,6.52448051 L11.3789694,12.0574958 C10.291556,11.5137891 3.83104094,8.18758339 1.97604158,7.19611821 C3.76707544,6.10870479 9.90776298,2.33474058 10.9951764,1.66310288 Z M20.4300869,17.238701 L11.3789694,22.7717163 C10.291556,22.2280096 3.86302369,18.9018038 1.94405883,17.9103387 C2.58371378,17.5265457 3.76707544,16.7909425 5.11035084,15.9913738 C7.79690164,17.366632 10.7393144,18.9018038 10.8352627,18.9337866 C10.8992282,18.9657693 10.9312109,18.9657693 10.9631937,18.9977521 C11.0591419,19.0297348 11.1550901,19.0617176 11.2510384,19.0617176 C11.2830211,19.0617176 11.3150039,19.0617176 11.3469866,19.0617176 C11.3469866,19.0617176 11.3469866,19.0617176 11.3789694,19.0617176 C11.5069004,19.0617176 11.6348314,19.0297348 11.7627623,18.9977521 L11.7947451,18.9977521 L11.5388831,18.2301661 L11.8267278,18.9657693 C11.8906933,18.9657693 11.9866416,18.9337866 12.0825898,18.8698211 L17.3597432,15.6395636 L20.4300869,17.238701 Z M11.3789694,17.3986147 C10.291556,16.854908 3.83104094,13.5287022 1.97604158,12.5692198 C2.61569653,12.1854268 3.79905819,11.4498236 5.11035084,10.650255 C7.79690164,12.0255131 10.7712972,13.560685 10.8352627,13.5926677 C10.8992282,13.6246505 10.9312109,13.6246505 10.9631937,13.6566332 C11.0591419,13.688616 11.1550901,13.7205987 11.2510384,13.7205987 C11.2830211,13.7205987 11.3150039,13.7205987 11.3469866,13.7205987 C11.3469866,13.7205987 11.3469866,13.7205987 11.3469866,13.7205987 C11.4749176,13.7205987 11.6028486,13.688616 11.7627623,13.6566332 L11.8267278,13.6246505 C11.8906933,13.6246505 11.9546588,13.5926677 12.0825898,13.5287022 L17.3277604,10.2984447 L20.3981042,11.8975821 L11.3789694,17.3986147 Z" id="Shape"></path>
                    </g>
                </g>
            </g>
        </g>
    </g>
</svg>