<svg xmlns="http://www.w3.org/2000/svg" width="173" height="26" viewBox="0 0 173 26">
    <g fill="#FFF" fill-rule="evenodd">
        <path d="M10.965 6.76a5.686 5.686 0 0 0-1.504-.905 3.993 3.993 0 0 0-1.456-.294c-.596 0-1.081.141-1.457.423-.376.282-.564.65-.564 1.104 0 .314.094.572.282.776.188.203.435.38.74.528.306.149.65.278 1.034.388.384.11.763.227 1.14.352 1.503.501 2.603 1.171 3.3 2.009.697.838 1.045 1.93 1.045 3.277 0 .909-.152 1.73-.458 2.467a5.147 5.147 0 0 1-1.339 1.891c-.587.525-1.308.932-2.161 1.222-.854.29-1.82.434-2.901.434-2.24 0-4.315-.665-6.226-1.997l1.973-3.711c.69.61 1.37 1.065 2.044 1.362.674.298 1.34.446 1.997.446.752 0 1.312-.172 1.68-.516.368-.345.552-.736.552-1.175 0-.266-.047-.497-.141-.693a1.501 1.501 0 0 0-.47-.54 3.766 3.766 0 0 0-.857-.458c-.353-.141-.78-.298-1.28-.47a25.704 25.704 0 0 1-1.75-.623 5.507 5.507 0 0 1-1.528-.904A4.203 4.203 0 0 1 1.58 9.73c-.275-.571-.412-1.296-.412-2.173s.145-1.672.435-2.384A5.299 5.299 0 0 1 2.825 3.34c.524-.509 1.166-.904 1.926-1.186.76-.282 1.61-.423 2.549-.423.877 0 1.793.121 2.748.364.956.243 1.872.6 2.75 1.07L10.964 6.76zm7.757 1.127V19.94H14.47V7.887h4.252zM14.188 3.26c0-.329.063-.638.188-.928a2.437 2.437 0 0 1 1.28-1.28c.29-.125.6-.188.928-.188.33 0 .639.063.928.188a2.437 2.437 0 0 1 1.28 1.28c.126.29.189.6.189.928 0 .329-.063.638-.188.928a2.437 2.437 0 0 1-1.28 1.28c-.29.126-.6.188-.929.188-.329 0-.638-.062-.928-.188a2.437 2.437 0 0 1-1.28-1.28c-.125-.29-.188-.599-.188-.928zm5.902 4.628h4.252v1.48C25.5 8.255 26.8 7.7 28.242 7.7c1.785 0 3.148.752 4.087 2.256.956-1.52 2.318-2.28 4.088-2.28.564 0 1.096.083 1.598.247.5.165.932.423 1.292.776.36.352.646.81.857 1.374.212.564.317 1.245.317 2.044v7.823H36.23v-5.944c0-.61-.043-1.112-.129-1.503-.086-.392-.211-.697-.376-.916a1.245 1.245 0 0 0-.575-.447 2.08 2.08 0 0 0-.705-.117c-1.363 0-2.044.994-2.044 2.983v5.944h-4.252v-5.944c0-.61-.04-1.116-.118-1.515-.078-.4-.192-.717-.34-.951a1.14 1.14 0 0 0-.576-.482 2.385 2.385 0 0 0-.822-.13c-.266 0-.517.04-.752.118a1.334 1.334 0 0 0-.623.458c-.18.227-.32.54-.422.94-.102.4-.153.92-.153 1.562v5.944H20.09V7.887zm31.79 6.061a2.88 2.88 0 0 0-.2-1.069 2.565 2.565 0 0 0-.575-.88c-.25-.251-.544-.45-.881-.6a2.672 2.672 0 0 0-1.092-.223 2.655 2.655 0 0 0-1.915.799 2.99 2.99 0 0 0-.587.88 2.616 2.616 0 0 0-.224 1.07 2.655 2.655 0 0 0 .8 1.914c.25.243.543.439.88.588.337.149.693.223 1.07.223a2.655 2.655 0 0 0 1.914-.799c.243-.25.438-.54.587-.87a2.48 2.48 0 0 0 .223-1.033zm-5.356 12.005h-4.252V7.887h4.252v1.34c.908-1.144 2.146-1.716 3.712-1.716a5.77 5.77 0 0 1 2.408.505c.744.337 1.39.795 1.938 1.375s.975 1.26 1.28 2.044c.306.783.458 1.62.458 2.513 0 .893-.152 1.723-.458 2.49a6.402 6.402 0 0 1-1.268 2.02 5.806 5.806 0 0 1-4.31 1.856c-1.505 0-2.758-.516-3.76-1.55v7.189zM61.447.44v19.499h-4.252V.44h4.252zm10.177 11.723c-.141-.595-.43-1.073-.87-1.433-.438-.36-.97-.54-1.597-.54-.658 0-1.194.172-1.609.516-.415.345-.677.83-.787 1.457h4.863zm-4.98 2.467c0 1.832.86 2.748 2.584 2.748.924 0 1.62-.376 2.09-1.127h4.112c-.83 2.756-2.905 4.134-6.226 4.134-1.018 0-1.95-.152-2.795-.458a6.24 6.24 0 0 1-2.173-1.304 5.811 5.811 0 0 1-1.398-2.02c-.33-.783-.494-1.66-.494-2.631 0-1.003.157-1.907.47-2.714a5.707 5.707 0 0 1 1.34-2.055 5.933 5.933 0 0 1 2.102-1.304c.822-.305 1.75-.458 2.784-.458 1.018 0 1.934.153 2.748.458a5.563 5.563 0 0 1 2.068 1.327c.564.58.994 1.288 1.292 2.126.297.838.446 1.782.446 2.831v.447h-8.95zm19.95-7.87a5.686 5.686 0 0 0-1.504-.905 3.993 3.993 0 0 0-1.456-.294c-.596 0-1.081.141-1.457.423-.376.282-.564.65-.564 1.104 0 .314.094.572.282.776.188.203.435.38.74.528.306.149.65.278 1.034.388.384.11.763.227 1.14.352 1.503.501 2.603 1.171 3.3 2.009.697.838 1.045 1.93 1.045 3.277 0 .909-.152 1.73-.458 2.467a5.147 5.147 0 0 1-1.339 1.891c-.587.525-1.308.932-2.161 1.222-.854.29-1.82.434-2.901.434-2.24 0-4.315-.665-6.226-1.997l1.973-3.711c.69.61 1.37 1.065 2.044 1.362.674.298 1.34.446 1.997.446.752 0 1.312-.172 1.68-.516.368-.345.552-.736.552-1.175 0-.266-.047-.497-.141-.693a1.501 1.501 0 0 0-.47-.54 3.766 3.766 0 0 0-.857-.458c-.353-.141-.78-.298-1.28-.47a25.704 25.704 0 0 1-1.75-.623 5.507 5.507 0 0 1-1.528-.904 4.203 4.203 0 0 1-1.08-1.422c-.275-.571-.412-1.296-.412-2.173s.145-1.672.435-2.384a5.299 5.299 0 0 1 1.222-1.833c.524-.509 1.166-.904 1.926-1.186.76-.282 1.61-.423 2.549-.423.877 0 1.793.121 2.749.364.955.243 1.871.6 2.748 1.07L86.594 6.76zm7.522 7.094c0 .408.075.78.223 1.116.15.337.345.63.588.881.243.25.532.447.869.587a2.74 2.74 0 0 0 1.069.212c.376 0 .732-.07 1.069-.212.337-.14.626-.336.87-.587a2.99 2.99 0 0 0 .586-.88c.15-.338.224-.702.224-1.093 0-.376-.075-.732-.224-1.07a2.99 2.99 0 0 0-.587-.88 2.584 2.584 0 0 0-.87-.587 2.74 2.74 0 0 0-1.068-.212c-.376 0-.732.07-1.069.212a2.584 2.584 0 0 0-.87.587c-.242.25-.438.54-.587.87a2.535 2.535 0 0 0-.223 1.056zm-4.487-.047c0-.892.18-1.726.54-2.502a6.145 6.145 0 0 1 1.504-2.02 7.149 7.149 0 0 1 2.29-1.35c.886-.33 1.853-.494 2.902-.494 1.034 0 1.993.16 2.878.481a7.124 7.124 0 0 1 2.302 1.34 6.007 6.007 0 0 1 1.515 2.043c.36.791.54 1.664.54 2.62 0 .955-.183 1.828-.551 2.62a6.218 6.218 0 0 1-1.516 2.043c-.642.572-1.413 1.014-2.314 1.327-.9.314-1.875.47-2.925.47-1.033 0-1.989-.156-2.866-.47a6.615 6.615 0 0 1-2.267-1.339 6.213 6.213 0 0 1-1.491-2.079c-.36-.806-.54-1.703-.54-2.69zm19.622-5.92v6.79c0 1.487.72 2.231 2.16 2.231 1.442 0 2.162-.744 2.162-2.231v-6.79h4.252V15.5c0 1.629-.536 2.85-1.609 3.665-1.073.814-2.674 1.221-4.804 1.221-2.13 0-3.732-.407-4.804-1.221-1.073-.815-1.61-2.036-1.61-3.665V7.887h4.253zm9.918 0h4.253v1.974c.454-.72 1.01-1.273 1.668-1.657.657-.383 1.425-.575 2.302-.575h.364c.133 0 .286.015.458.047v4.064a4.04 4.04 0 0 0-1.832-.423c-.987 0-1.727.294-2.22.881-.494.587-.74 1.445-.74 2.573v5.168h-4.253V7.887zm18.611 3.9c-.736-.501-1.48-.752-2.231-.752-.408 0-.787.07-1.14.212-.352.14-.661.34-.928.599a2.755 2.755 0 0 0-.622.916 3.023 3.023 0 0 0-.223 1.186c0 .423.074.81.223 1.163.149.353.352.658.61.916.259.259.568.458.929.6.36.14.743.21 1.15.21.8 0 1.543-.273 2.232-.821v3.617c-1.049.455-2.043.682-2.983.682a7.046 7.046 0 0 1-2.502-.447 6.35 6.35 0 0 1-2.09-1.28 6.287 6.287 0 0 1-1.446-1.997c-.36-.775-.54-1.64-.54-2.596 0-.955.172-1.828.517-2.62a6.273 6.273 0 0 1 1.41-2.043 6.379 6.379 0 0 1 2.125-1.34 7.201 7.201 0 0 1 2.643-.48c1.034 0 1.99.219 2.866.657v3.618zm5.417-3.9V19.94h-4.252V7.887h4.252zm-4.534-4.628c0-.329.063-.638.188-.928a2.437 2.437 0 0 1 1.28-1.28c.29-.125.6-.188.928-.188.33 0 .638.063.928.188a2.437 2.437 0 0 1 1.28 1.28c.126.29.188.6.188.928 0 .329-.062.638-.188.928a2.437 2.437 0 0 1-1.28 1.28c-.29.126-.599.188-.928.188-.329 0-.638-.062-.928-.188a2.437 2.437 0 0 1-1.28-1.28c-.125-.29-.188-.599-.188-.928zm5.902 4.628h4.252v1.527c.58-.705 1.166-1.178 1.762-1.421.595-.243 1.292-.364 2.09-.364.846 0 1.57.137 2.174.41a4.334 4.334 0 0 1 1.538 1.164c.345.407.58.861.705 1.362.125.502.188 1.073.188 1.715v7.659h-4.252v-6.085c0-.595-.043-1.076-.13-1.444-.085-.369-.238-.662-.457-.881a1.611 1.611 0 0 0-.635-.4 2.362 2.362 0 0 0-.751-.117c-.72 0-1.273.215-1.657.646-.383.43-.575 1.045-.575 1.844v6.437h-4.252V7.887zm18 5.967a2.8 2.8 0 0 0 .787 1.974c.243.25.532.446.87.587a2.8 2.8 0 0 0 1.091.211c.376 0 .733-.07 1.07-.211.336-.141.626-.337.869-.587a2.99 2.99 0 0 0 .587-.881c.149-.337.223-.693.223-1.07 0-.39-.074-.751-.223-1.08a2.92 2.92 0 0 0-.6-.87 2.714 2.714 0 0 0-.88-.586 2.682 2.682 0 0 0-1.046-.212c-.375 0-.728.075-1.057.223a3.037 3.037 0 0 0-.869.588c-.25.242-.45.528-.599.857a2.535 2.535 0 0 0-.223 1.057zm9.538-5.967v11.23c0 .673-.04 1.276-.118 1.809a7.797 7.797 0 0 1-.329 1.41 4.433 4.433 0 0 1-.88 1.444c-.4.446-.881.834-1.445 1.163a7.654 7.654 0 0 1-1.915.775 9.052 9.052 0 0 1-2.314.282c-.94 0-1.801-.117-2.584-.352a7.034 7.034 0 0 1-2.056-.975 5.67 5.67 0 0 1-1.445-1.457 4.832 4.832 0 0 1-.751-1.82h4.792c.298.798.971 1.198 2.02 1.198.893 0 1.578-.251 2.056-.752s.717-1.198.717-2.091V18.6a7.115 7.115 0 0 1-.905.74c-.29.196-.583.356-.88.481-.298.126-.612.216-.94.27a6.59 6.59 0 0 1-1.081.083c-.862 0-1.652-.149-2.373-.447a5.58 5.58 0 0 1-1.868-1.245 5.572 5.572 0 0 1-1.221-1.914c-.29-.744-.435-1.57-.435-2.479 0-.924.157-1.781.47-2.572.313-.791.74-1.48 1.28-2.068a5.827 5.827 0 0 1 4.358-1.891c1.426 0 2.624.533 3.595 1.598V7.887h4.252z"/>
        <path fill-rule="nonzero" d="M2.44 26a1.5 1.5 0 0 1 0-3h8.523a1.5 1.5 0 0 1 0 3H2.44z"/>
    </g>
</svg>
