<?xml version="1.0" encoding="UTF-8"?>
<svg width="138px" height="18px" viewBox="0 0 138 18" version="1.1" xmlns="http://www.w3.org/2000/svg" xmlns:xlink="http://www.w3.org/1999/xlink">
    <!-- Generator: Sketch 51.2 (57519) - http://www.bohemiancoding.com/sketch -->
    <title>logo_new_A4_Logo_Horizontal_Wht</title>
    <desc>Created with Sketch.</desc>
    <defs></defs>
    <g id="Page-1" stroke="none" stroke-width="1" fill="none" fill-rule="evenodd">
        <g id="Redesign-Light03---Preferred" transform="translate(-149.000000, -1591.000000)" fill="#FFFFFF">
            <g id="logo_new_A4_Logo_Horizontal_Wht" transform="translate(149.000000, 1591.000000)">
                <path d="M134.469199,12.4520533 C134.472192,12.8373314 134.551589,13.2183318 134.702939,13.5736915 C135.170925,13.8166689 135.694154,13.93827 136.223198,13.9270076 C136.730584,13.9270076 137.376694,13.8148438 137.76626,13.5736915 C137.91761,13.2183318 137.997007,12.8373314 138,12.4520533 C137.995016,12.0621444 137.915732,11.6766144 137.76626,11.31546 C137.282613,11.0952955 136.756118,10.9811219 136.223198,10.9808379 C135.697654,10.9815598 135.178682,11.0957901 134.702939,11.31546 C134.553467,11.6766144 134.474183,12.0621444 134.469199,12.4520533 Z M125.072099,13.0857789 C126.276826,13.6875234 127.609035,14.0007435 128.960161,13.9999141 C131.343167,13.9999141 132.907133,12.8259327 132.907133,10.9621439 C132.907133,9.3768953 131.793543,8.46462957 130.309391,7.96176178 L129.098885,7.55236384 C128.570595,7.36542414 128.355858,7.16165987 128.355858,6.84386238 C128.355858,6.52606489 128.627604,6.25126353 129.153994,6.25126353 C130.090854,6.25126353 131.06952,6.60457956 131.88856,6.95976499 C132.376943,6.60644896 132.768409,5.61753795 132.728503,4.92773046 C131.5927,4.44067214 130.371736,4.17467948 129.133091,4.14445313 C126.827998,4.14445313 125.343845,5.33712841 125.343845,7.21961117 C125.343845,8.73008394 126.417528,9.53018585 127.785761,10.0237067 L128.859444,10.4144106 C129.503654,10.6200443 129.758297,10.8985844 129.758297,11.2537699 C129.758297,11.6089553 129.36683,11.9061894 128.618103,11.9061894 C127.83707,11.9061894 126.761487,11.5528734 125.902541,11.1229121 C125.41934,11.6729253 125.128262,12.3609291 125.072099,13.0857789 Z M120.011538,6.2082674 C120.929394,6.2082674 121.301857,6.93546283 121.301857,7.79351605 L121.301857,7.99914972 L118.721218,7.99914972 C118.801032,6.78591107 119.150691,6.2082674 120.011538,6.2082674 Z M123.84069,10.0106209 C124.034874,9.38933797 124.120967,8.7402476 124.095333,8.09075017 C124.095333,5.8362574 122.61118,4.13884493 120.032441,4.13884493 C116.925412,4.13884493 115.661697,6.32043122 115.661697,9.13387369 C115.661697,11.5940001 116.579553,13.9943059 120.019139,13.9943059 C121.387372,13.9943059 122.869624,13.6036019 123.848291,12.9324884 C123.769463,12.2927289 123.48904,11.6932898 123.046354,11.2182513 C122.244418,11.5173549 121.385472,11.7790704 120.505622,11.7790704 C119.215302,11.7790704 118.844739,11.0144871 118.747823,10.0087515 L123.846391,10.0087515 L123.84069,10.0106209 Z M114.050223,7.55984143 C114.050223,5.62127675 113.100061,4.24166177 111.315657,4.24166177 C110.175463,4.24166177 109.303215,4.74452956 108.541185,5.39694911 C108.338424,4.70131908 107.673756,4.23594503 106.939212,4.27531092 L105.785716,4.27531092 L105.648893,4.4061687 L105.648893,13.7195045 C106.151805,13.7966185 106.660172,13.8341255 107.169151,13.8316683 C107.678157,13.8348709 108.186585,13.7973594 108.68941,13.7195045 L108.68941,7.49254313 C109.080008,7.11956838 109.59245,6.89500774 110.135556,6.85881755 C110.80067,6.85881755 110.975499,7.24952153 110.975499,8.08888077 L110.975499,12.05948 C110.975499,13.2334613 111.385969,13.8671869 112.617379,13.8671869 C113.306223,13.8782622 113.977711,13.6543325 114.517702,13.2334613 C114.166143,12.7679814 114.048323,12.1118231 114.048323,11.3883665 L114.048323,7.55984143 L114.050223,7.55984143 Z M99.6609732,1.75162498 C99.6633612,2.12368649 99.7428967,2.49135619 99.894713,2.83213644 C100.187363,3.00038217 100.812569,3.11254599 101.340859,3.11254599 C101.837074,3.11467543 102.328728,3.01934298 102.787005,2.83213644 C102.941436,2.49189938 103.023563,2.12420775 103.028346,1.75162498 C103.025959,1.37956347 102.946423,1.01189377 102.794607,0.671113519 C102.34078,0.468016235 101.847003,0.365889127 101.348461,0.372010001 C100.850361,0.370248703 100.35752,0.472182129 99.9023143,0.671113519 C99.7460525,1.01075476 99.6638403,1.37882787 99.6609732,1.75162498 Z M103.313395,6.56158343 C103.313395,5.20066242 102.473452,4.34260921 101.183132,4.34260921 L100.747958,4.34260921 C100.318485,4.34260921 99.6343687,4.37999715 99.0376671,4.43607906 C98.9513792,4.77707953 98.9117558,5.12788619 98.9198471,5.47920258 C98.9085852,5.81216689 98.9483029,6.14490352 99.0376671,6.46624419 L99.3303169,6.46624419 C100.014433,6.46624419 100.248173,6.93172404 100.248173,7.54675565 L100.248173,13.7157657 C100.751171,13.7921503 101.259479,13.829653 101.768432,13.8279295 C102.28501,13.8312645 102.801025,13.7937559 103.311495,13.7157657 L103.311495,6.56158343 L103.313395,6.56158343 Z M97.6124245,7.56731901 C97.6124245,5.62875434 96.6622627,4.24913936 94.877859,4.24913936 C93.8421827,4.24913936 93.0022397,4.69592524 92.2592132,5.27356891 L92.2592132,1.75162498 C92.2592132,0.443047087 91.8107368,0 90.5983304,0 L89.4220302,0 L89.2852069,0.130857789 L89.2852069,13.7195045 C89.7697556,13.7953713 90.2597101,13.8328796 90.7503563,13.8316683 C91.2543529,13.8359093 91.7578174,13.7983888 92.2554125,13.7195045 L92.2554125,7.49254313 C92.6500112,7.1164701 93.1683626,6.89168288 93.7167613,6.85881755 C94.360971,6.85881755 94.5377011,7.24952153 94.5377011,8.08888077 L94.5377011,12.05948 C94.5377011,13.2334613 94.9481709,13.8671869 96.1795806,13.8671869 C96.8728647,13.8769766 97.5487273,13.6533767 98.0951067,13.2334613 C97.715042,12.7679814 97.6067235,12.1118231 97.6067235,11.3883665 L97.6067235,7.55984143 L97.6124245,7.56731901 Z M84.9068615,8.53566665 C85.3121942,8.61545149 85.7249378,8.65304653 86.1382712,8.64783047 C86.9972174,8.64783047 87.6433274,8.20104459 87.6433274,7.23082756 C87.6433274,5.38573273 86.0223514,4.13697554 83.8426804,4.13697554 C81.6934145,4.13697554 79.4719363,5.47920258 79.4719363,9.09461635 C79.4719363,12.0856515 80.9769925,13.9961753 83.7894713,13.9961753 C85.2166143,13.9961753 86.7197702,13.4353562 87.5787164,12.5604784 C87.4418931,11.9828347 86.9136031,11.1995574 86.42522,10.9397112 C85.8000136,11.3491091 85.0379838,11.7229885 84.2759541,11.7229885 C83.1623645,11.7229885 82.5770649,11.070569 82.5770649,9.09461635 C82.5770649,7.11866374 82.888718,6.29052087 83.787571,6.29052087 C84.7852408,6.29986785 84.9220641,7.10183916 84.9030609,8.53753605 L84.9068615,8.53566665 Z M73.5581295,11.8594545 C73.3172854,11.872389 73.082128,11.7844413 72.9108492,11.6173748 C72.7395704,11.4503083 72.6481739,11.2197332 72.6592765,10.9827073 C72.6592765,10.2742059 73.0108364,9.79003203 73.8906862,9.79003203 C74.1643327,9.79003203 74.5557994,9.808726 74.9453657,9.82741997 L74.9453657,11.3229376 C74.5571036,11.6495951 74.0685804,11.8385327 73.5581295,11.8594545 Z M78.559781,12.3810163 C78.1683144,12.1193007 78.0124878,11.7099027 78.0124878,11.169647 L78.0124878,7.37290173 C78.0124878,5.01372273 76.233785,4.19492684 74.5348958,4.19492684 C73.0082785,4.22686239 71.4972339,4.50407268 70.0615343,5.01559212 C70.1394475,5.74278755 70.3731873,6.56345283 70.8045608,7.04762665 C71.8212339,6.74852313 72.8360066,6.45128901 73.6759496,6.45128901 C74.5557994,6.45128901 74.9453657,6.84199298 74.9453657,7.62527032 L74.9453657,7.97858635 C74.4379793,7.94119841 73.9096894,7.94119841 73.5581295,7.94119841 C71.5456869,7.94119841 69.6890709,8.92824002 69.6890709,11.1659082 C69.6890709,12.5081353 70.6392326,13.9999141 72.6592765,13.9999141 C73.721915,14.0067619 74.7450657,13.604162 75.5097618,12.8782759 C76.0182061,13.5125472 76.7980948,13.8774839 77.6191209,13.8653175 C78.0124878,13.5886467 78.441961,12.8801453 78.559781,12.3772775 L78.559781,12.3810163 Z M54,13.6821166 C54.5203151,13.7900177 55.0512892,13.8401817 55.5829695,13.8316683 C56.0409062,13.8383652 56.4986023,13.807098 56.9512024,13.7381985 L57.2438522,8.55623002 C57.3217655,7.23269695 57.3996788,5.48107197 57.3996788,4.25661695 L57.536502,4.25661695 L59.4520281,11.8426299 C59.9829545,11.9144079 60.5180924,11.9518762 61.0540009,11.9547937 C61.5962712,11.9531928 62.1378183,11.9157204 62.6749768,11.8426299 L64.6095061,4.25100875 L64.7273262,4.25100875 C64.7463294,5.48107197 64.8242427,7.24204394 64.8831527,8.55062183 L65.1967061,13.7288515 C65.6422923,13.7976806 66.0930398,13.8289509 66.5440355,13.8223213 C67.0820004,13.8307806 67.6192639,13.7806245 68.1460082,13.6727696 L67.1122322,1.00760498 C66.4139425,0.90558568 65.7088174,0.855592914 65.0028731,0.858053218 C64.3422982,0.854428971 63.6825464,0.904449383 63.0303373,1.00760498 L61.8578377,5.57454182 C61.7609212,6.0213277 61.3105445,8.01597429 61.1357148,8.9394564 L60.9988915,8.9394564 C60.843065,8.00475791 60.373685,6.01385012 60.2767685,5.57454182 L59.1213719,1.00760498 C58.4689928,0.905864739 57.8093585,0.855853239 57.1488361,0.858053218 C56.4428472,0.854294034 55.7376214,0.904293938 55.039477,1.00760498 L54,13.6821166 Z" id="Shape"></path>
                <path d="M49.1321824,5.77770741 C50.5308826,5.77770741 51.0752417,6.8758708 51.0752417,8.2020266 L51.0752417,8.44901837 L47.1494302,8.44901837 C47.2533877,6.78277391 47.8884732,5.77770741 49.1321824,5.77770741 Z M52.8633099,9.87017099 C52.9602453,9.37722153 53.0058545,8.87546618 52.9993996,8.3730209 C52.9993996,6.11779607 51.6592935,4.31855605 49.1510837,4.31855605 C46.4500801,4.31855605 45.0891825,6.44078531 45.0891825,9.25839139 C45.0891825,11.8157061 46.0210193,14.1640279 49.0924895,14.1640279 C50.3861861,14.1750885 51.6553148,13.8088087 52.7461215,13.109563 C52.6559248,12.6398048 52.4335419,12.2059206 52.1053655,11.8594047 C51.2741015,12.310127 50.3485832,12.5568662 49.4043619,12.5794807 C47.7523835,12.5794807 47.2288159,11.4395187 47.1494302,9.87017099 L52.8633099,9.87017099 Z M43.2841031,12.4654845 C42.7586454,12.4654845 42.5280489,12.180494 42.5280489,11.6124129 L42.5280489,1.25015833 C42.5280489,0.379987334 42.278551,0 41.4431111,0 L40.6870569,0 L40.5509672,0.1139962 L40.5509672,12.0474984 C40.5509672,13.3546548 41.2125146,13.9987334 42.4751251,13.9987334 C43.0282877,13.9952662 43.5804434,13.9508138 44.1271035,13.8657378 C44.1655408,13.730403 44.1852574,13.5903929 44.1856977,13.4496517 C44.1828286,13.1139704 44.1233932,12.7812045 44.0099151,12.4654845 L43.2841031,12.4654845 Z M34.9675069,5.96770108 C35.8993437,5.96770108 36.7366737,6.87777074 36.7366737,9.13109563 C36.7366737,11.4414186 35.861541,12.5224826 34.7747131,12.5224826 C34.0942643,12.5224826 33.4138155,12.2184927 32.8316538,11.8404053 L32.8316538,7.19886004 C33.4232662,6.34578847 34.2587061,5.96770108 34.9675069,5.96770108 Z M38.7666793,9.13109563 C38.7666793,6.28119063 37.6325979,4.31855605 35.4249197,4.31855605 C34.4216658,4.32461396 33.4628409,4.73532281 32.7636089,5.45851805 C32.6275191,4.85243825 32.2381512,4.49145028 31.5784939,4.49145028 L30.9566393,4.49145028 L30.8394509,4.60544649 L30.8394509,17.8860038 L30.9566393,18 L31.733485,18 C32.5689249,18 32.8222031,17.6200127 32.8222031,16.7498417 L32.8222031,13.468651 C33.4966053,13.8608714 34.2584965,14.0758561 35.0374419,14.0937302 C36.9030056,14.0937302 38.7666793,12.5224826 38.7666793,9.13109563 Z M21.1676275,7.99113363 L21.1676275,13.9246358 C21.5015608,13.981986 21.8401453,14.007432 22.17885,14.0006333 C22.5106339,14.0065683 22.8422377,13.9811237 23.169281,13.9246358 L23.169281,7.3318556 C23.810037,6.63077897 24.6076742,6.17669411 25.2673315,6.17669411 C26.0441772,6.17669411 26.4335451,6.64977834 26.4335451,7.97593414 L26.4335451,12.8055731 C26.4335451,13.620646 26.7246259,14.0557315 27.5014716,14.0557315 C27.9551491,14.0524027 28.3965035,13.9069569 28.7640821,13.6396453 C28.510804,13.1855605 28.4540999,12.5794807 28.4540999,11.9164028 L28.4540999,7.36985434 C28.4540999,5.72260925 27.6564627,4.39645345 25.9477802,4.39645345 C24.8401608,4.39645345 23.7514428,5.00253325 22.8574087,5.79860671 C22.4793816,4.96453452 21.7497893,4.39645345 20.6421699,4.39645345 C19.6517389,4.39645345 18.6802092,4.92653578 17.882572,5.68461051 C17.8428792,4.92463585 17.532897,4.49145028 16.7749526,4.49145028 L16.0188984,4.49145028 L15.90171,4.62444585 L15.90171,13.9341355 C16.235737,13.9907135 16.5742494,14.0161541 16.9129325,14.010133 C17.2447164,14.0160679 17.5763202,13.9906234 17.9033635,13.9341355 L17.9033635,7.3318556 C18.5252181,6.64977834 19.3417566,6.17669411 20.0014139,6.17669411 C20.7801498,6.17669411 21.1695177,6.66877771 21.1695177,7.9949335 L21.1676275,7.99113363 Z M10.8569384,1.97023433 C10.8551133,2.25773672 10.9150741,2.54224492 11.032721,2.80430652 C11.3608884,2.97575112 11.7271768,3.06011385 12.0968672,3.04939835 C12.4465423,3.04939835 12.972,2.95440152 13.1647938,2.80240659 C13.2824407,2.54034498 13.3424015,2.25583678 13.3405764,1.96833439 C13.3422482,1.67472229 13.2823529,1.38405095 13.1647938,1.11526282 C12.8291156,0.963845897 12.4647767,0.887359327 12.0968672,0.891070298 C11.7284625,0.886381476 11.3636472,0.964266144 11.0289407,1.1190627 C10.9109309,1.38690838 10.8522423,1.67733477 10.8569384,1.97023433 Z M13.4596549,6.19379354 C13.4596549,5.15262825 12.8567017,4.50854972 11.8851721,4.50854972 L11.6148827,4.50854972 C11.2055513,4.51173681 10.7966886,4.53710612 10.3900749,4.58454718 C10.3318555,4.82030935 10.29953,5.06177768 10.293678,5.30462318 C10.2989432,5.54164073 10.3332235,5.77710472 10.3957453,6.00569981 L10.6036602,6.00569981 C11.2444161,6.00569981 11.4580014,6.30968968 11.4580014,6.989867 L11.4580014,13.9246358 C11.7919347,13.981986 12.1305192,14.007432 12.4692239,14.0006333 C12.8010078,14.0065683 13.1326116,13.9811237 13.4596549,13.9246358 L13.4596549,6.19379354 Z M0,12.748575 C1.38589085,13.6634524 3.00497816,14.1569089 4.6629643,14.1697277 C7.87619466,14.1697277 9.42421564,12.541482 9.42421564,10.3698543 C9.42421564,8.68461051 8.18050647,7.51994934 6.50962669,6.84547182 L4.25658516,5.88980367 C3.31151741,5.49271691 2.64429957,5.01773274 2.64429957,4.17986067 C2.64429957,3.17669411 3.53833367,2.39962001 4.97672679,2.39962001 C5.9671578,2.39962001 7.28836252,2.79670678 8.29958501,3.29069031 C8.74446365,2.88428447 9.01543812,2.32045872 9.05563921,1.71754275 C7.7704581,1.09000702 6.36378545,0.75402774 4.93514381,0.733375554 C2.33053708,0.733375554 0.544359026,2.34452185 0.544359026,4.40785307 C0.544359026,6.01899937 1.57448288,7.00316656 3.20566982,7.68524383 L5.50029433,8.6580114 C6.63437563,9.13109563 7.26946116,9.81317289 7.26946116,10.7042432 C7.25055981,11.7454085 6.35652571,12.4844839 4.78204283,12.4844839 C3.44193676,12.4844839 2.00354364,11.9145028 0.877022875,11.1963268 C0.402385255,11.5857433 0.0895975581,12.1393482 0,12.748575 Z" id="Shape"></path>
            </g>
        </g>
    </g>
</svg>